<?xml version="1.0" encoding="UTF-8" standalone="no"?>
<!-- Created with Inkscape (http://www.inkscape.org/) -->

<svg
   xmlns:dc="http://purl.org/dc/elements/1.1/"
   xmlns:cc="http://creativecommons.org/ns#"
   xmlns:rdf="http://www.w3.org/1999/02/22-rdf-syntax-ns#"
   xmlns:svg="http://www.w3.org/2000/svg"
   xmlns="http://www.w3.org/2000/svg"
   xmlns:sodipodi="http://sodipodi.sourceforge.net/DTD/sodipodi-0.dtd"
   xmlns:inkscape="http://www.inkscape.org/namespaces/inkscape"
   id="svg2"
   version="1.1"
   inkscape:version="0.48.2 r9819"
   width="295"
   height="295"
   xml:space="preserve"
   sodipodi:docname="icon.svg"
   inkscape:export-filename="F:\Dropbox\Public\qHAC\icon16.png"
   inkscape:export-xdpi="4.8000002"
   inkscape:export-ydpi="4.8000002"><metadata
     id="metadata8"><rdf:RDF><cc:Work
         rdf:about=""><dc:format>image/svg+xml</dc:format><dc:type
           rdf:resource="http://purl.org/dc/dcmitype/StillImage" /><dc:title></dc:title></cc:Work></rdf:RDF></metadata><defs
     id="defs6"><clipPath
       clipPathUnits="userSpaceOnUse"
       id="clipPath16"><path
         d="m 0,1.2207e-4 960,0 0,539.99999793 -960,0 L 0,1.2207e-4 z"
         clip-rule="evenodd"
         id="path18"
         inkscape:connector-curvature="0" /></clipPath><clipPath
       clipPathUnits="userSpaceOnUse"
       id="clipPath30"><path
         d="M 1.431e-6,0 960,0 960,540 1.431e-6,540 l 0,-540 z"
         clip-rule="evenodd"
         id="path32"
         inkscape:connector-curvature="0" /></clipPath><clipPath
       clipPathUnits="userSpaceOnUse"
       id="clipPath3024"><path
         id="path3026"
         style="fill:#ffca08;fill-opacity:1;fill-rule:evenodd;stroke:none"
         d="m 138,375.83 c 0,7.83 6.34,14.17 14.17,14.17 l 175.66,0 c 7.83,0 14.17,-6.34 14.17,-14.17 l 0,-175.66 C 342,192.34 335.66,186 327.83,186 l -175.66,0 c -7.83,0 -14.17,6.34 -14.17,14.17 l 0,175.66 z"
         inkscape:connector-curvature="0" /></clipPath></defs><sodipodi:namedview
     pagecolor="#ffffff"
     bordercolor="#666666"
     borderopacity="1"
     objecttolerance="10"
     gridtolerance="10"
     guidetolerance="10"
     inkscape:pageopacity="0"
     inkscape:pageshadow="2"
     inkscape:window-width="1440"
     inkscape:window-height="768"
     id="namedview4"
     showgrid="false"
     fit-margin-top="0"
     fit-margin-left="0"
     fit-margin-right="0"
     fit-margin-bottom="0"
     inkscape:zoom="1.9234313"
     inkscape:cx="62.194393"
     inkscape:cy="186.59233"
     inkscape:window-x="0"
     inkscape:window-y="0"
     inkscape:window-maximized="1"
     inkscape:current-layer="g10" /><g
     id="g10"
     inkscape:groupmode="layer"
     inkscape:label="qHAC"
     transform="matrix(1.25,0,0,-1.25,-152.87234,513.87896)"><path
       inkscape:connector-curvature="0"
       d="m 126.29787,384.01317 c 0,12.75 10.34,23.09 23.09,23.09 l 181.82,0 c 12.75,0 23.09,-10.34 23.09,-23.09 l 0,-181.82 c 0,-12.75 -10.34,-23.09 -23.09,-23.09 l -181.82,0 c -12.75,0 -23.09,10.34 -23.09,23.09 l 0,181.82 z"
       style="fill:#ffffff;fill-opacity:1;fill-rule:evenodd;stroke:#ffca08;stroke-width:8;stroke-miterlimit:4;stroke-opacity:1;stroke-dasharray:none"
       id="path22" /><path
       inkscape:connector-curvature="0"
       d="m 138.29787,380.93317 c 0,7.83 6.34,14.17 14.17,14.17 l 175.66,0 c 7.83,0 14.17,-6.34 14.17,-14.17 l 0,-175.66 c 0,-7.83 -6.34,-14.17 -14.17,-14.17 l -175.66,0 c -7.83,0 -14.17,6.34 -14.17,14.17 l 0,175.66 z"
       style="fill:#ffca08;fill-opacity:1;fill-rule:evenodd;stroke:none"
       id="path24" /><g
       id="g26"
       clip-path="url(#clipPath3024)"
       transform="translate(0.2978656,5.1031679)"><g
         id="g28"
         clip-path="url(#clipPath30)"><g
           transform="matrix(1,0,0,-1,177.12,231.77)"
           id="text34"><path
             inkscape:connector-curvature="0"
             d="m 70.049477,-117.41517 c -15.122579,-0.92707 -28.123484,3.31816 -39.002752,12.73572 -11.543344,10.215389 -18.641004,23.615106 -21.2930003,40.199191 -0.6640236,3.846486 -0.9960305,7.694932 -0.9960217,11.54535 -8.8e-6,14.988949 4.17842,27.989854 12.535298,39.002752 9.154461,11.9401156 20.962975,17.9101665 35.425576,17.9101705 11.940045,-4e-6 22.554144,-4.04481977 31.842328,-12.1344595 4.376734,-3.984075 7.957955,-7.966133 10.743673,-11.946187 l 0,6.966078 0,0 0,0 0,81.394408 9.954142,0 0,-182.885373 c -15.523454,-1.7247 -28.593189,-2.65392 -39.209243,-2.78765 z m 29.255101,62.889055 c -0.133712,15.519353 -5.439749,27.92305 -15.918127,37.211128 -8.624165,7.5632965 -17.711842,11.3449361 -27.263057,11.3449301 -12.340996,6e-6 -22.4915,-6.8324531 -30.451542,-20.4973981 -4.247285,-7.296027 -6.370914,-15.986915 -6.370895,-26.07269 -1.9e-5,-8.093628 1.394815,-16.053696 4.184506,-23.880227 3.182384,-8.624006 7.559207,-15.389658 13.130481,-20.296979 9.288059,-8.093579 19.703763,-11.808419 31.247144,-11.144509 3.846354,1.1e-4 14.32684,0.7289 31.44149,2.18639 -9.9e-5,34.099641 -9.9e-5,51.14941 0,51.149355 z"
             style="font-size:199.00999451px;font-variant:normal;font-weight:normal;writing-mode:lr-tb;fill:#ffffff;fill-opacity:1;fill-rule:nonzero;stroke:#ffffff;stroke-width:5.68590021;stroke-linecap:butt;stroke-linejoin:miter;stroke-miterlimit:10;stroke-opacity:1;font-family:Aaargh;-inkscape-font-specification:Aaargh"
             id="path3014" /></g></g></g></g></svg>