<?xml version="1.0" encoding="UTF-8" standalone="no"?>
<svg xmlns="http://www.w3.org/2000/svg" version="1.1" width="704.62665" height="209.95" id="logo">
  <path d="m 376.34,207.01 -39.39,0 0,-85.08 -65.73,0 0,85.08 -39.52,0 0,-204.07 39.52,0 0,88.16 65.73,0 0,-88.16 39.39,0 0,204.07 z m 124.58,-44.15 -51.02,0 -11.49,44.15 -41.21,0 57.89,-204.07 40.92,0 57.89,204.07 -41.35,0 -11.63,-44.15 z m -42.89,-31.11 34.76,0 -16.96,-64.76 -0.84,0 -16.96,64.76 z m 246.02,11.91 0.28,0.84 c 0.37,21.86 -5.21,38.24 -16.75,49.12 -11.54,10.89 -28.01,16.33 -49.41,16.33 -21.95,0 -39.38,-6.47 -52.28,-19.41 C 573,177.6 566.55,159.22 566.55,135.39 l 0,-60.55 c 0,-23.73 6.24,-42.14 18.71,-55.22 C 597.74,6.54 614.58,0 635.79,0 c 22.33,0 39.48,5.42 51.44,16.26 11.96,10.84 17.75,27.23 17.38,49.19 l -0.28,0.84 -38.41,0 c 0,-13.08 -2.31,-22.24 -6.93,-27.47 -4.63,-5.23 -12.36,-7.85 -23.2,-7.85 -9.9,0 -17.33,3.58 -22.28,10.73 -4.96,7.14 -7.43,18.1 -7.43,32.86 l 0,60.83 c 0,14.86 2.66,25.86 7.99,33.01 5.32,7.14 13.36,10.72 24.1,10.72 9.81,0 16.87,-2.59 21.17,-7.78 4.29,-5.19 6.44,-14.41 6.44,-27.68 l 38.27,0 z" id="logo_text" style="fill:#404040;fill-opacity:1;fill-rule:nonzero;stroke:none" />
  <path d="M 14.15625,1.5625 C 6.32625,1.5625 0,7.92 0,15.75 l 0,175.65625 c 0,7.83 6.32625,14.15625 14.15625,14.15625 l 124.375,0 0,-58.90625 0,-6.96875 c -2.78572,3.98005 -6.34201,7.98468 -10.71875,11.96875 -9.28818,8.08964 -19.90371,12.125 -31.84375,12.125 -14.4626,0 -26.28304,-5.96613 -35.4375,-17.90625 -8.35688,-11.01289 -12.53126,-24.01105 -12.53125,-39 -1e-5,-3.85042 0.33598,-7.71601 1,-11.5625 2.652,-16.58408 9.73791,-29.97211 21.28125,-40.1875 10.87927,-9.41756 23.87742,-13.67707 39,-12.75 10.61605,0.13373 23.6953,1.0878 39.21875,2.8125 l 0,160.375 41.34375,0 c 7.83,0 14.15625,-6.32625 14.15625,-14.15625 L 204,15.75 C 204,7.92 197.67375,1.5625 189.84375,1.5625 l -175.6875,0 z M 104.9375,51.875 c -10.68977,-0.109281 -20.386194,3.631019 -29.09375,11.21875 -5.57127,4.90732 -9.94261,11.65724 -13.125,20.28125 -2.78969,7.82653 -4.18752,15.78138 -4.1875,23.875 -2e-5,10.08578 2.12772,18.79772 6.375,26.09375 7.96004,13.66494 18.12776,20.50001 30.46875,20.5 9.55122,1e-5 18.62584,-3.78045 27.25,-11.34375 10.47838,-9.28807 15.77254,-21.6994 15.90625,-37.21875 -1e-4,5e-5 -1e-4,-17.05661 0,-51.15625 -17.11465,-1.45749 -27.59115,-2.18739 -31.4375,-2.1875 -0.72146,-0.04149 -1.4436,-0.05521 -2.15625,-0.0625 z" id="icon" style="fill:#ffca08;fill-opacity:1;fill-rule:evenodd;stroke:none" />
</svg>
